HIERARCHY
ROOT RootJoint
{
    OFFSET   0.000000   0.000000   0.000000
    CHANNELS 6 Xposition Yposition Zposition Xrotation Yrotation Zrotation
    JOINT pelvis_lowerback
    {
        OFFSET   0.000000   0.093605   0.000000
        CHANNELS 3 Xrotation Yrotation Zrotation
        JOINT lowerback_torso
        {
            OFFSET   0.000000   0.100000   0.000000
            CHANNELS 3 Xrotation Yrotation Zrotation
            JOINT torso_head
            {
                OFFSET   0.000000   0.282350   0.000000
                CHANNELS 3 Xrotation Yrotation Zrotation
                End Site
                {
                    OFFSET   0.000000   0.192650   0.000000
                }
            }
            JOINT rTorso_Clavicle
            {
                OFFSET  -0.001000   0.157500   0.000000
                CHANNELS 3 Xrotation Yrotation Zrotation
                JOINT rShoulder
                {
                    OFFSET  -0.117647   0.000000   0.000000
                    CHANNELS 3 Xrotation Yrotation Zrotation
                    JOINT rElbow
                    {
                        OFFSET  -0.245000   0.000000   0.000000
                        CHANNELS 3 Xrotation Yrotation Zrotation
                        JOINT rWrist
                        {
                            OFFSET  -0.240000   0.000000   0.000000
                            CHANNELS 3 Xrotation Yrotation Zrotation
                            End Site
                            {
                                OFFSET  -0.116353  -0.002500   0.000000
                            }
                        }
                    }
                }
            }
            JOINT lTorso_Clavicle
            {
                OFFSET   0.001000   0.157500   0.000000
                CHANNELS 3 Xrotation Yrotation Zrotation
                JOINT lShoulder
                {
                    OFFSET   0.117647   0.000000   0.000000
                    CHANNELS 3 Xrotation Yrotation Zrotation
                    JOINT lElbow
                    {
                        OFFSET   0.245000   0.000000   0.000000
                        CHANNELS 3 Xrotation Yrotation Zrotation
                        JOINT lWrist
                        {
                            OFFSET   0.240000   0.000000   0.000000
                            CHANNELS 3 Xrotation Yrotation Zrotation
                            End Site
                            {
                                OFFSET   0.116353  -0.002500   0.000000
                            }
                        }
                    }
                }
            }
        }
    }
    JOINT rHip
    {
        OFFSET  -0.100000  -0.051395   0.000000
        CHANNELS 3 Xrotation Yrotation Zrotation
        JOINT rKnee
        {
            OFFSET   0.000000  -0.410000   0.000000
            CHANNELS 3 Xrotation Yrotation Zrotation
            JOINT rAnkle
            {
                OFFSET   0.000000  -0.390000   0.000000
                CHANNELS 3 Xrotation Yrotation Zrotation
                JOINT rToeJoint
                {
                    OFFSET   0.000000  -0.050000   0.130000
                    CHANNELS 3 Xrotation Yrotation Zrotation
                    End Site
                    {
                        OFFSET  -0.010000   0.002000   0.060000
                    }
                }
            }
        }
    }
    JOINT lHip
    {
        OFFSET   0.100000  -0.051395   0.000000
        CHANNELS 3 Xrotation Yrotation Zrotation
        JOINT lKnee
        {
            OFFSET   0.000000  -0.410000   0.000000
            CHANNELS 3 Xrotation Yrotation Zrotation
            JOINT lAnkle
            {
                OFFSET   0.000000  -0.390000   0.000000
                CHANNELS 3 Xrotation Yrotation Zrotation
                JOINT lToeJoint
                {
                    OFFSET   0.000000  -0.050000   0.130000
                    CHANNELS 3 Xrotation Yrotation Zrotation
                    End Site
                    {
                        OFFSET   0.010000   0.002000   0.060000
                    }
                }
            }
        }
    }
}
MOTION
Frames: 12
Frame Time:   0.008333
 -2.407783   0.779697   4.067263 -14.157132  -1.271037   2.288602  13.189243  -1.439168  -5.899185  -4.352687  -2.590678 -12.445872   2.133631  -3.215319   2.181783 -12.518849   2.848351 -34.798348 -25.962045   6.201436 -17.605680  -0.000071  24.529508   0.000520   7.344387   6.456521 -13.926573  -7.604441  -5.490467  12.674190 -19.165196  -2.078244  -0.595073   0.013333 -20.020477  -0.002089   3.734276  -3.126148  20.497865  -9.427103  -4.046258  -5.296025  67.963961  -0.000663  -0.002103 -45.518696  -3.245513  -7.097832   0.993403   0.000046   0.000114  -8.321747  -5.860905  28.117788  45.218614  -0.000420  -0.000639  -3.272215   2.171052  -8.161946 -23.261922  -0.000038   0.001838
 -2.407645   0.779563   4.066893 -14.125540  -1.741543   2.274217  13.250036  -1.475894  -5.769678  -4.403725  -2.537051 -12.491800   1.994514  -3.231114   2.230198 -12.561835   2.902959 -34.700024 -26.010872   6.284589 -17.764870  -0.000117  24.357198   0.000950   7.438640   6.587204 -14.065135  -7.559111  -5.412801  12.309323 -19.319979  -2.008970  -0.817959   0.016347 -21.042810  -0.001841   3.788087  -3.006061  20.691966  -9.617180  -3.820823  -5.383484  68.094465  -0.000731  -0.001966 -45.465681  -3.077093  -6.943385   0.968318   0.000058   0.000118  -8.111352  -5.736059  28.091953  45.213129  -0.000326  -0.000493  -3.322892   2.382700  -8.256068 -23.214437  -0.000029   0.001391
 -2.407615   0.779620   4.066481 -14.084036  -2.221910   2.258122  13.291057  -1.517137  -5.609639  -4.456694  -2.492311 -12.532357   1.860870  -3.247294   2.276702 -12.602054   2.955198 -34.609750 -26.056794   6.361843 -17.917075  -0.000191  24.191700   0.001326   7.521655   6.671888 -14.209458  -7.508508  -5.344353  11.932690 -19.459142  -1.948317  -1.054939   0.018606 -22.012773  -0.001495   3.881056  -3.008806  20.861949  -9.807408  -3.616766  -5.490437  68.179340  -0.000729  -0.001783 -45.383566  -2.957797  -6.809028   0.950736   0.000057   0.000127  -7.894517  -5.587388  28.063725  45.151367  -0.000161  -0.000193  -3.301298   2.613119  -8.314839 -23.242014  -0.000015   0.001157
 -2.407670   0.779761   4.066019 -14.034620  -2.722622   2.235904  13.320318  -1.559887  -5.427078  -4.510933  -2.458002 -12.555166   1.734359  -3.263998   2.320848 -12.639678   3.004383 -34.527339 -26.099602   6.433073 -18.060855  -0.000289  24.034851   0.001665   7.596766   6.735035 -14.349365  -7.455755  -5.286657  11.565078 -19.585851  -1.891893  -1.290503   0.019942 -22.919352  -0.001073   3.979021  -3.036745  20.996701 -10.009807  -3.445135  -5.612199  68.245906  -0.000718  -0.001617 -45.284136  -2.871105  -6.685342   0.936568   0.000052   0.000139  -7.665542  -5.427786  28.042454  45.052762   0.000039   0.000180  -3.238606   2.841273  -8.351777 -23.338331   0.000036   0.001099
 -2.407792   0.779927   4.065515 -13.980485  -3.244193   2.207767  13.342014  -1.604966  -5.225998  -4.564159  -2.433393 -12.557519   1.615728  -3.281096   2.362349 -12.674820   3.050261 -34.452165 -26.139314   6.498532 -18.196274  -0.000405  23.886554   0.001969   7.666148   6.784612 -14.480841  -7.402801  -5.238295  11.215920 -19.702191  -1.840613  -1.516812   0.020461 -23.766091  -0.000605   4.074629  -3.068961  21.109145 -10.225517  -3.295399  -5.743326  68.308098  -0.000718  -0.001491 -45.176251  -2.803011  -6.571704   0.925290   0.000046   0.000148  -7.422450  -5.265318  28.029285  44.937518   0.000243   0.000552  -3.148578   3.059641  -8.373095 -23.509817   0.000144   0.001243
 -2.407971   0.780087   4.064982 -13.924489  -3.781872   2.175354  13.359058  -1.653682  -5.009211  -4.614853  -2.418519 -12.539380   1.505153  -3.298467   2.401087 -12.707661   3.092845 -34.383547 -26.176087   6.558603 -18.323693  -0.000528  23.746538   0.002233   7.730854   6.824160 -14.602861  -7.350558  -5.199044  10.889567 -19.809589  -1.795755  -1.730277   0.020329 -24.557400  -0.000119   4.167599  -3.103719  21.209531 -10.451990  -3.160735  -5.879559  68.372810  -0.000737  -0.001412 -45.065669  -2.745761  -6.466547   0.916116   0.000039   0.000151  -7.168718  -5.103763  28.022741  44.812331   0.000440   0.000901  -3.041343   3.266266  -8.383080 -23.738446   0.000296   0.001545
 -2.408199   0.780224   4.064436 -13.868516  -4.329973   2.140677  13.372874  -1.706652  -4.779021  -4.662334  -2.413315 -12.501787   1.402446  -3.315936   2.437147 -12.738364   3.132270 -34.320826 -26.210113   6.613729 -18.443446  -0.000650  23.614509   0.002452   7.791567   6.855972 -14.715441  -7.299454  -5.168935  10.587531 -19.909084  -1.758205  -1.929604   0.019708 -25.297452   0.000357   4.258892  -3.142744  21.303700 -10.685750  -3.036330  -6.017707  68.443191  -0.000776  -0.001377 -44.956461  -2.694721  -6.368782   0.908412   0.000034   0.000151  -6.907551  -4.944797  28.020907  44.683713   0.000616   0.001203  -2.922454   3.460744  -8.384471 -24.014548   0.000478   0.001969
 -2.408869   0.781060   4.063786 -13.765841  -4.859297   2.208369  13.325102  -1.765597  -4.649759  -4.705691  -2.393010 -12.511607   1.257042  -3.345494   2.435582 -12.706397   3.117292 -34.227379 -26.200227   6.705788 -18.587064  -0.000880  23.413350   0.003079   7.820080   6.827082 -14.820769  -7.219182  -5.029158  10.228229 -20.163972  -1.827014  -2.078668   0.021191 -26.626532  -0.000477   4.276817  -2.944562  21.331799 -10.902094  -2.819351  -6.104346  68.379792  -0.000474  -0.000973 -44.766410  -2.493377  -6.265952   0.878705   0.000059   0.000158  -6.744795  -4.715631  27.917998  44.431115   0.000883   0.001768  -2.307544   3.688918  -8.490147 -24.712493   0.000625   0.002236
 -2.409720   0.782216   4.063062 -13.641933  -5.344292   2.303582  13.258110  -1.833632  -4.501066  -4.755867  -2.386529 -12.532236   1.113592  -3.375545   2.418409 -12.657962   3.119314 -34.167325 -26.183639   6.809802 -18.729287  -0.001036  23.225603   0.003467   7.843293   6.777011 -14.909844  -7.136738  -4.925144   9.895835 -20.400942  -1.924974  -2.224485   0.021661 -27.900070  -0.000943   4.360140  -2.944870  21.379722 -11.103053  -2.595282  -6.173592  68.240474  -0.000093  -0.000568 -44.538095  -2.329924  -6.195689   0.851394   0.000075   0.000155  -6.593380  -4.484842  27.785392  44.086336   0.001169   0.002448  -1.568812   3.912227  -8.534605 -25.503169   0.001161   0.002504
 -2.410640   0.783508   4.062262 -13.502891  -5.800016   2.405892  13.186741  -1.906909  -4.319558  -4.806447  -2.393410 -12.536216   0.974676  -3.403427   2.401241 -12.603187   3.131797 -34.138881 -26.164390   6.922534 -18.872964  -0.001161  23.053643   0.003690   7.866658   6.734548 -15.007562  -7.053940  -4.849255   9.595445 -20.621068  -2.033363  -2.361821   0.021147 -29.097349  -0.000924   4.464635  -3.010911  21.427813 -11.308753  -2.377871  -6.256987  68.066413   0.000247  -0.000192 -44.289646  -2.208623  -6.147661   0.832525   0.000073   0.000148  -6.443332  -4.262292  27.646267  43.682197   0.001444   0.003143  -0.798854   4.125849  -8.548685 -26.298592   0.001760   0.002824
 -2.411587   0.784845   4.061377 -13.351767  -6.253664   2.507231  13.125058  -1.973806  -4.117026  -4.842955  -2.400002 -12.531579   0.834617  -3.391317   2.426289 -12.597267   3.113176 -34.074405 -26.169396   7.026400 -18.982694  -0.001287  22.911728   0.003694   7.908534   6.763664 -15.156965  -6.975223  -4.794502   9.342084 -20.828157  -2.151821  -2.477959   0.019985 -30.222650  -0.000370   4.579566  -3.112116  21.495742 -11.530784  -2.195127  -6.355312  67.880905   0.000576   0.000178 -44.028675  -2.126938  -6.105820   0.815934   0.000068   0.000151  -6.289066  -4.043369  27.510059  43.238239   0.001725   0.003842  -0.025403   4.330140  -8.543781 -27.084515   0.002329   0.003280
 -2.412509   0.786151   4.060440 -13.194698  -6.714246   2.603293  13.072652  -2.036461  -3.887464  -4.874575  -2.409936 -12.491865   0.706911  -3.381825   2.441207 -12.591598   3.095951 -34.018189 -26.173485   7.117143 -19.086759  -0.001449  22.772904   0.003719   7.944343   6.779745 -15.291812  -6.900624  -4.748813   9.116296 -21.021812  -2.267331  -2.580960   0.018366 -31.274593   0.000450   4.695152  -3.221384  21.571384 -11.769097  -2.035589  -6.464789  67.701139   0.000857   0.000515 -43.766382  -2.065404  -6.069741   0.802169   0.000062   0.000154  -6.129198  -3.830125  27.380528  42.783746   0.001989   0.004482   0.728570   4.524441  -8.528788 -27.859189   0.002810   0.003861
